<svg width="2001" height="500" viewBox="0 0 2001 500" fill="none" xmlns="http://www.w3.org/2000/svg">
<path d="M250 0C388.071 0 500 111.929 500 250C500 388.071 388.071 500 250 500C111.929 500 0 388.071 0 250C0 111.929 111.929 0 250 0ZM274.826 59.2344C271.337 29.8289 228.663 29.8289 225.174 59.2344L209.895 188.014C208.533 199.487 199.487 208.533 188.014 209.895L59.2344 225.174C29.8289 228.663 29.8289 271.337 59.2344 274.826L188.014 290.105C199.487 291.467 208.533 300.513 209.895 311.986L225.174 440.766C228.663 470.171 271.337 470.171 274.826 440.766L290.105 311.986C291.467 300.513 300.513 291.467 311.986 290.105L440.766 274.826C470.171 271.337 470.171 228.663 440.766 225.174L311.986 209.895C300.513 208.533 291.467 199.487 290.105 188.014L274.826 59.2344Z" fill="black"/>
<path d="M554.918 217L579.065 71.5455H614.222L604.562 129.926H661.878L671.537 71.5455H706.622L682.474 217H647.389L657.048 158.548H599.733L590.074 217H554.918ZM735.99 217H698.206L771.43 71.5455H818.234L843.163 217H805.379L789.399 108.193H788.263L735.99 217ZM740.536 159.756H819.513L814.967 186.46H735.99L740.536 159.756ZM1006.76 71.5455L982.616 217H952.787L908.966 133.051H907.972L893.98 217H858.824L882.972 71.5455H913.227L956.693 155.352H957.901L971.679 71.5455H1006.76ZM1100.11 115.438C1100.48 110.087 1099.06 105.944 1095.84 103.009C1092.67 100.073 1087.65 98.6051 1080.79 98.6051C1076.24 98.6051 1072.36 99.197 1069.14 100.381C1065.92 101.517 1063.39 103.127 1061.54 105.21C1059.69 107.246 1058.53 109.614 1058.06 112.312C1057.63 114.443 1057.75 116.337 1058.42 117.994C1059.08 119.652 1060.24 121.119 1061.9 122.398C1063.6 123.676 1065.71 124.789 1068.22 125.736C1070.77 126.683 1073.64 127.511 1076.81 128.222L1088.74 131.062C1095.66 132.625 1101.64 134.708 1106.71 137.312C1111.82 139.869 1115.97 142.971 1119.14 146.616C1122.31 150.215 1124.49 154.358 1125.67 159.045C1126.86 163.733 1126.95 168.989 1125.96 174.812C1124.44 183.998 1120.82 191.882 1115.09 198.463C1109.41 205.045 1101.98 210.087 1092.79 213.591C1083.65 217.095 1073.02 218.847 1060.9 218.847C1048.78 218.847 1038.48 217.024 1030.01 213.378C1021.58 209.685 1015.47 204.121 1011.68 196.688C1007.89 189.254 1006.88 179.879 1008.63 168.562H1042.22C1041.7 173.25 1042.29 177.156 1044 180.281C1045.75 183.406 1048.45 185.774 1052.09 187.384C1055.74 188.993 1060.14 189.798 1065.3 189.798C1070.04 189.798 1074.18 189.159 1077.73 187.881C1081.33 186.602 1084.2 184.827 1086.33 182.554C1088.51 180.281 1089.83 177.677 1090.3 174.741C1090.78 172.043 1090.33 169.699 1088.96 167.71C1087.63 165.722 1085.36 163.993 1082.14 162.526C1078.96 161.058 1074.8 159.732 1069.64 158.548L1055.08 154.997C1043.05 152.062 1033.94 147.374 1027.73 140.935C1021.58 134.495 1019.4 125.759 1021.2 114.727C1022.71 105.684 1026.46 97.7765 1032.42 91.0057C1038.43 84.2348 1046.03 78.9792 1055.22 75.2386C1064.45 71.4508 1074.61 69.5568 1085.69 69.5568C1096.96 69.5568 1106.43 71.4744 1114.1 75.3097C1121.82 79.0975 1127.38 84.4479 1130.79 91.3608C1134.24 98.2263 1135.24 106.252 1133.77 115.438H1100.11Z" fill="black"/>
<path d="M579.065 282.545H622.602L644.619 372.602H646.324L698.17 282.545H741.707L717.56 428H683.327L698.17 338.653H696.963L647.389 427.077H625.585L605.415 338.156H604.207L589.151 428H554.918L579.065 282.545ZM756.391 282.545H795.667L816.263 343.412H817.755L858.451 282.545H897.727L828.479 379.42L820.383 428H785.44L793.607 379.42L756.391 282.545ZM945.489 282.545L960.333 389.08H961.54L1011.75 282.545H1051.1L977.876 428H931.072L906.143 282.545H945.489ZM1101.92 282.545L1077.77 428H1042.61L1066.76 282.545H1101.92ZM1099.84 428L1123.99 282.545H1225.41L1220.58 311.097H1154.31L1149.48 340.926H1210.56L1205.73 369.548H1144.65L1139.83 399.449H1206.09L1201.26 428H1099.84ZM1258.15 428L1239.97 282.545H1278.82L1285.07 377.858H1286.27L1327.04 282.545H1358.72L1368.09 378.071H1369.23L1407.01 282.545H1445.79L1379.38 428H1345.51L1334.07 339.79H1332.94L1291.96 428H1258.15ZM1436.17 428L1460.32 282.545H1520.4C1531.29 282.545 1540.36 284.652 1547.6 288.866C1554.85 293.08 1559.98 298.975 1563.01 306.551C1566.04 314.127 1566.73 322.91 1565.07 332.901C1563.46 342.986 1559.84 351.769 1554.21 359.25C1548.62 366.731 1541.42 372.531 1532.62 376.651C1523.81 380.77 1513.8 382.83 1502.57 382.83H1465.57L1470.19 355.131H1500.73C1506.08 355.131 1510.69 354.207 1514.58 352.361C1518.51 350.514 1521.66 347.934 1524.02 344.619C1526.39 341.305 1527.95 337.399 1528.71 332.901C1529.42 328.402 1529.14 324.52 1527.86 321.253C1526.58 317.938 1524.28 315.382 1520.97 313.582C1517.7 311.783 1513.44 310.884 1508.18 310.884H1490.86L1471.32 428H1436.17ZM1715.45 357.545C1712.8 373.218 1707.59 386.452 1699.82 397.247C1692.1 407.995 1682.71 416.139 1671.63 421.679C1660.59 427.219 1648.73 429.989 1636.04 429.989C1622.64 429.989 1611.04 427.006 1601.24 421.04C1591.44 415.074 1584.32 406.385 1579.86 394.974C1575.46 383.563 1574.61 369.714 1577.31 353.426C1579.86 337.754 1585 324.496 1592.72 313.653C1600.48 302.811 1609.93 294.596 1621.06 289.009C1632.23 283.374 1644.21 280.557 1657 280.557C1670.3 280.557 1681.83 283.563 1691.58 289.577C1701.38 295.59 1708.49 304.326 1712.89 315.784C1717.29 327.242 1718.15 341.163 1715.45 357.545ZM1680.29 353.426C1681.76 344.288 1681.76 336.594 1680.29 330.344C1678.87 324.094 1676.08 319.383 1671.91 316.21C1667.74 312.991 1662.32 311.381 1655.65 311.381C1648.26 311.381 1641.58 313.204 1635.62 316.849C1629.7 320.448 1624.75 325.704 1620.77 332.616C1616.8 339.482 1614.03 347.792 1612.46 357.545C1610.85 366.778 1610.81 374.473 1612.32 380.628C1613.88 386.783 1616.8 391.423 1621.06 394.548C1625.32 397.626 1630.74 399.165 1637.32 399.165C1644.66 399.165 1651.27 397.389 1657.14 393.838C1663.01 390.287 1667.91 385.102 1671.84 378.284C1675.82 371.466 1678.63 363.18 1680.29 353.426ZM1724.25 428L1748.4 282.545H1808.49C1819.38 282.545 1828.47 284.51 1835.76 288.44C1843.05 292.323 1848.24 297.91 1851.31 305.202C1854.39 312.446 1855.1 321.04 1853.44 330.983C1851.83 341.021 1848.24 349.567 1842.65 356.622C1837.11 363.63 1829.96 368.98 1821.2 372.673C1812.49 376.366 1802.59 378.213 1791.51 378.213H1753.51L1758.2 350.514H1789.67C1794.92 350.514 1799.47 349.828 1803.3 348.455C1807.14 347.034 1810.19 344.903 1812.46 342.062C1814.78 339.174 1816.32 335.481 1817.08 330.983C1817.79 326.485 1817.46 322.768 1816.09 319.832C1814.76 316.849 1812.42 314.624 1809.05 313.156C1805.74 311.641 1801.48 310.884 1796.27 310.884H1778.94L1759.41 428H1724.25ZM1817.15 361.523L1842.36 428H1804.01L1779.58 361.523H1817.15ZM1872.8 311.097L1877.63 282.545H2000.57L1995.74 311.097H1951.63L1932.31 428H1897.66L1916.97 311.097H1872.8Z" fill="black"/>
</svg>
